<?xml version="1.0" standalone="no"?>
<!DOCTYPE svg PUBLIC "-//W3C//DTD SVG 20010904//EN"
 "http://www.w3.org/TR/2001/REC-SVG-20010904/DTD/svg10.dtd">
<svg version="1.0" xmlns="http://www.w3.org/2000/svg"
 width="1012.000000pt" height="1012.000000pt" viewBox="0 0 1012.000000 1012.000000"
 preserveAspectRatio="xMidYMid meet">

<g transform="translate(0.000000,1012.000000) scale(0.100000,-0.100000)"
fill="#000000" stroke="none">
<path d="M4700 7614 c-336 -35 -573 -94 -829 -208 -405 -178 -775 -491 -1036
-874 l-49 -73 124 -124 c69 -69 127 -125 131 -125 3 0 33 42 65 93 214 330
522 600 877 767 568 266 1232 262 1800 -13 554 -268 968 -773 1118 -1363 40
-161 60 -309 64 -479 6 -250 -28 -474 -107 -712 -74 -224 -220 -489 -362 -656
-31 -37 -56 -70 -56 -74 0 -5 54 -62 120 -128 l119 -119 22 20 c37 33 154 185
218 283 579 885 524 2043 -137 2871 -395 495 -960 812 -1607 900 -80 11 -409
21 -475 14z"/>
<path d="M4740 7013 c-360 -23 -738 -171 -1022 -400 l-69 -56 124 -125 124
-124 89 66 c196 144 443 244 697 281 56 8 315 8 372 0 431 -59 814 -295 1055
-650 255 -377 324 -873 180 -1305 -126 -379 -414 -707 -768 -874 -34 -16 -62
-32 -62 -35 0 -4 58 -64 129 -135 l129 -129 59 33 c696 391 1062 1196 902
1984 -77 380 -297 759 -587 1011 -282 246 -626 400 -1007 451 -54 7 -272 11
-345 7z"/>
<path d="M3319 6248 c-456 -567 -637 -1296 -497 -2008 91 -470 306 -880 641
-1227 418 -432 947 -686 1547 -742 118 -11 385 -6 505 9 340 42 676 156 963
327 251 149 525 397 703 635 144 193 144 157 -1 303 -69 69 -127 125 -130 125
-3 -1 -33 -45 -68 -99 -124 -193 -309 -393 -490 -530 -831 -630 -2003 -554
-2741 179 -528 525 -738 1274 -561 1998 71 290 211 572 402 808 l66 82 -122
121 c-67 66 -124 121 -128 121 -4 0 -44 -46 -89 -102z"/>
<path d="M4282 6300 c-238 -143 -457 -354 -604 -580 -115 -176 -198 -368 -246
-570 -40 -165 -42 -177 -49 -373 -12 -330 48 -611 191 -895 180 -359 480 -656
840 -831 614 -300 1360 -232 1906 174 139 103 139 81 -3 223 l-123 123 -59
-47 c-135 -104 -339 -206 -506 -253 -192 -53 -462 -68 -644 -36 -308 54 -572
187 -792 398 -131 127 -215 238 -292 386 -70 137 -113 255 -143 394 -29 138
-32 436 -5 572 92 462 387 854 797 1060 41 20 77 39 80 42 4 4 -251 263 -260
263 -3 0 -42 -22 -88 -50z"/>
</g>
</svg>
