<?xml version="1.0" standalone="no"?>
<!DOCTYPE svg PUBLIC "-//W3C//DTD SVG 20010904//EN"
 "http://www.w3.org/TR/2001/REC-SVG-20010904/DTD/svg10.dtd">
<svg version="1.0" xmlns="http://www.w3.org/2000/svg"
 width="1012.000000pt" height="1012.000000pt" viewBox="0 0 1012.000000 1012.000000"
 preserveAspectRatio="xMidYMid meet">

<g transform="translate(0.000000,1012.000000) scale(0.100000,-0.100000)"
fill="#000000" stroke="none">
  <style>
      path {
        fill: #000000;
      }
      @media (prefers-color-scheme: dark) {
        path {
          fill: #ffffff;
        }
      }
    </style>
<path d="M4745 7613 c-612 -39 -1147 -273 -1572 -686 -133 -130 -236 -251
-328 -386 l-57 -84 124 -124 c67 -67 126 -123 129 -123 4 0 25 30 47 68 64
108 159 229 267 340 327 341 718 547 1190 629 152 26 520 24 675 -5 435 -80
799 -266 1109 -567 131 -128 207 -219 304 -365 315 -478 416 -1092 271 -1662
-72 -287 -220 -578 -413 -814 l-50 -60 123 -123 123 -123 67 81 c179 214 347
518 435 786 90 275 121 472 121 775 0 418 -79 754 -261 1112 -366 717 -1065
1209 -1864 1312 -119 16 -344 25 -440 19z"/>
<path d="M4628 6999 c-243 -32 -529 -134 -734 -264 -80 -50 -222 -157 -228
-171 -2 -6 49 -65 115 -130 90 -90 122 -116 133 -109 140 102 188 133 277 179
121 62 286 118 421 143 139 26 410 23 544 -5 309 -66 549 -196 769 -417 221
-220 351 -460 417 -769 31 -146 31 -427 0 -572 -67 -313 -193 -546 -417 -770
-124 -125 -252 -219 -387 -285 -38 -18 -68 -38 -68 -43 0 -17 233 -246 250
-246 8 0 46 18 83 40 449 262 764 701 874 1219 25 117 27 143 27 371 0 228 -2
254 -27 371 -102 481 -375 887 -777 1158 -237 159 -481 253 -767 296 -112 16
-391 19 -505 4z"/>
<path d="M3381 6319 c-18 -19 -65 -77 -105 -129 -248 -328 -408 -708 -473
-1130 -25 -160 -25 -538 0 -700 40 -265 109 -486 226 -725 367 -748 1072
-1250 1901 -1351 258 -31 621 -10 880 51 234 56 558 198 760 334 278 186 518
426 695 694 l39 58 -128 127 c-71 70 -130 122 -132 116 -3 -5 -31 -50 -62
-100 -170 -261 -402 -485 -673 -650 -479 -292 -1066 -377 -1615 -235 -742 194
-1321 780 -1508 1527 -43 173 -59 304 -59 504 -1 206 16 341 63 525 73 281
213 563 388 778 32 38 61 76 67 83 8 11 -19 43 -111 135 l-121 121 -32 -33z"/>
<path d="M4323 6321 c-418 -229 -756 -662 -877 -1121 -48 -182 -60 -273 -60
-480 -1 -216 14 -336 64 -514 184 -649 720 -1154 1375 -1295 214 -46 517 -53
725 -16 284 51 569 177 799 355 l93 72 -123 124 -123 123 -29 -22 c-113 -85
-173 -123 -256 -166 -258 -132 -547 -189 -818 -162 -355 35 -671 182 -917 426
-235 233 -379 510 -432 835 -19 112 -21 344 -5 445 77 474 343 858 756 1094
50 29 100 54 113 57 12 4 22 9 22 13 0 3 -57 63 -127 133 l-128 127 -52 -28z"/>
</g>
</svg>
